<svg xmlns="http://www.w3.org/2000/svg" xmlns:xlink="http://www.w3.org/1999/xlink" x="0px" y="0px" width="64px" height="64px" viewBox="0 0 64 64" stroke-width="2"><g stroke-width="2" transform="translate(0.5, 0.5)"><line data-color="color-2" fill="none" stroke="#000000" stroke-width="2" stroke-linecap="square" stroke-miterlimit="10" x1="2" y1="60" x2="62" y2="60" stroke-linejoin="miter"></line> <path fill="none" stroke="#000000" stroke-width="2" stroke-linecap="square" stroke-miterlimit="10" d="M57,4H41v6h3 c1.10457,0,2,0.89543,2,2l0,20.594c0,7.52956-5.77449,14.01771-13.29491,14.38858C24.66637,47.37902,18,40.95348,18,33V12 c0-1.10457,0.89543-2,2-2h3V4H7v6h3c1.10457,0,2,0.89543,2,2v20.50873c0,10.83044,8.40514,20.06708,19.22783,20.47664 C42.60593,53.41595,52,44.28414,52,33V12c0-1.10457,0.89543-2,2-2h3V4z" stroke-linejoin="miter"></path></g></svg>